<svg xmlns="http://www.w3.org/2000/svg" viewBox="0 0 2269.39 366.79"><defs><style>.a{fill:#fff;}.a,.b{fill-rule:evenodd;}.b{fill:#cc2131;stroke:#fff;stroke-miterlimit:33.89;stroke-width:9.87px;}</style></defs><path class="a" d="M172.07,165.85c-16.63-16-24.5-17.77-54.24-20.43C90.71,143.65,14.62,157.86,1.49,238.66c-9.62,62.17,28.87,112.8,74.36,123.48,39.36,8.87,58.61-3.57,64.72-6.23l.88-45.29s-32.38,12.44-51.61.88c-19.25-12.44-36.74-38.17-27.12-74.6,9.62-35.51,46.35-55,71.72-44.41,6.13,3.57,14.87,5.35,18.37,9.78ZM371.5,196.94s-20.11,102.12-22.77,116.34c-6.13,27.53,7,90.58,89.21,24,1.76-.88,0,24.88,0,24.88l53.36.88L524.54,197h-56s-17.5,82.58-19.25,95c-5.24,32.85-49,52.38-40.23,5.31Q417.87,247,428.3,196.94Zm269.41,119c-13.12,10.63-32.36,10.63-37.61,8-13.11-8-21.87-23.09-14.86-52.38s19.23-39.09,34.11-41.75c8.74-.88,23.62,2.66,29.74,10.64l17.49-28.4c4.37-.88-3.5-5.34-4.37-6.22-35.87-25.73-91-12.44-118.09,27.53-28,40-28,94.14,7.88,119.9,28.87,20.41,78.72,9.78,102.34-11.56L640.91,316Zm31.51,44.38,41.1-210.47,56-.89s-18.37,83.48-16.62,79.93C769.52,197.81,863.12,174.71,850,236c-18.38,88.82-24.5,126.13-24.5,126.13l-59.48-.9s18.37-92.36,21-103c4.37-24-35.86-23.1-40.24,1.78-7,40.83-16.62,99.45-16.62,99.45l-57.71.87ZM312,325.7c-27.12,40-79.6,51.5-116.34,24.88-35.86-25.76-42.87-79-15.75-119,28-40,80.48-51.51,116.34-25.76C333,231.57,340,285.75,312,325.7Zm-53.38-99.45c-14.86-3.57-32.35,16.87-39.36,46.18s-.87,55.93,14,59.51,32.36-16.9,39.36-46.19.88-55.9-14-59.5Zm681.42,67.48c52.49,0,116.34-69.28,40.25-96.79-22.74-8.9-76.09,4.43-99.71,39.06-28,40-28,94.14,8.74,119.9,28.87,21.3,77.84,9.77,111.08-20.42l-16.61-25.76c-22.74,19.54-46.37,16-51.61,13.32-9.62-6.22-13.12-12.44-13.12-29.31,11.37.9,13.11,0,21,0Zm27.12-62.16c6.12,6.21,3.51,22.19-15.74,31.07-14.87,7.1-21.87,8-28,7.1,7-25.73,28-52.37,43.73-38.17Zm70,32.86h67.36l-5.25,30.2-68.22-.9Zm71.73-116.35h160.94L1260.24,197l-51.61.88-29.74,163.4-55.11-.9,28-163.38h-52.47l7.87-48,1.75-.9Zm306.14,212.25,33.25-163.39,52.47-.88-6.11,37.28s18.36-36.4,42-37.28c21.86-.89,25.38,12.41,25.38,12.41l-23.68,44.38s-43.72-21.31-53.35,24-16.61,83.47-16.61,83.47h-53.35Z" transform="translate(0 -0.02)"/><path class="a" d="M1325,344.35c-5.26,5.35-49,37.32-76.12,8.9-30.59-31.08-16.61-149.2,59.51-159,27.11-4.44,42.86,18.66,42.86,18.66l4.36-16,54.24-.88L1379.22,360.3l-56,.89,1.72-16.88Zm1.76-111c-12.26-1.77-26.24,16-32.38,41.75s-1.75,50.61,10.52,52.39c19.22,1.78,27.11-22.19,34.1-48,4.37-16,7-44.41-12.24-46.19Zm318.39,112.8c-5.24,4.44-49,37.29-76.09,8.87-30.63-32-16.62-149.2,59.48-159.84,27.1-3.56,42.86,18.65,42.86,18.65l14.86-63.94h56.88l-42,212.27-57.73.88,1.74-16.89Zm1.75-111.9c-12.23-.88-26.24,16-32.35,41.75-6.13,26.65-1.75,50.61,10.5,52.38,19.24,1.78,27.1-22.19,34.12-48,4.34-16,7-43.52-12.27-46.18Z" transform="translate(0 -0.02)"/><path class="b" d="M1806.92,360.33c.88-82.58,14.86-125.21,47.25-193.59,3.5-8-60.36-9.76-55.1-87,0,0,62.09,24.86,95.33,7.1,62.11-32,65.62-59.49,120.74-37.3,19.22,8,47.22-84.36,130.33-24,21,15.1,117.21-29.31,102.35,62.17,0,.88-18.37-16-28.86-2.68-3.52,4.45-.88,15.1,9.6,37.31,18.39,36.41,36.75,108.34,35.87,170.51-1.75,63-1.75,67.48-1.75,67.48Z" transform="translate(0 -0.02)"/><path class="a" d="M2020.36,292.85c-21,28.42-29.74,50.61-32.37,47.07-33.23-56,4.39-135,38.51-151.87,5.24-2.66-1.75,51.53,27.11,73.72,1.75,1.77-14.88,5.32-33.25,31.08Zm88.37-134.1c-1.75,16-9.63,27.54-18.37,26.64s-14.89-14.21-13.12-30.19c.85-15.11,9.59-27.53,18.36-26.64S2109.58,142.76,2108.73,158.75ZM2114,38.86c-36.73-4.43-72.61,36.42-79.62,91.48-5.24,39.08,6.13,74.59,26.23,94.12-3.5-16-4.35-35.51-1.75-55.94,5.27-48,28-84.37,49-81.7s33.23,43.52,27.13,91.47c-2.63,21.32-8.77,40-16.64,54.17,24.5-12.44,44.63-45.29,49.88-84.37,7-56-17.49-103.9-54.22-109.23ZM1917.14,195.17A37.2,37.2,0,0,0,1939,216.48c20.12,7.1,43.72-8,56.85-33.74-17.51-3.57-60.35-11.56-78.74,12.43Zm86.61-34.65c7.87-31.08-2.63-61.28-25.38-68.38-23.61-8-48.11,9.77-63.84,40.86-5.24,10.66-14,34.63-13.12,45.29,15.73-13.32,54.24-33.75,102.34-17.77Z" transform="translate(0 -0.02)"/></svg>