<?xml version="1.0" encoding="utf-8"?>
<!-- Generator: Adobe Illustrator 25.3.1, SVG Export Plug-In . SVG Version: 6.00 Build 0)  -->
<svg version="1.1" id="Layer_1" xmlns="http://www.w3.org/2000/svg" xmlns:xlink="http://www.w3.org/1999/xlink" x="0px" y="0px"
	 viewBox="80 310 540 120" style="enable-background:new 0 0 612 792;" xml:space="preserve">
<style type="text/css">
	.st0{fill:#F8762E;}
	.st1{fill:#4D99E6;}
	.st2{fill:#404B58;}
	.st3{fill:#3C4B8A;}
</style>
<g>
	<path class="st0" d="M302.5,408l-0.6-0.4l-0.6-0.4c-0.5-0.3-1.1-0.1-1.3,0.4l-3.5,9.3l6.3-7.7C303.1,408.9,303,408.2,302.5,408z"/>
	<path class="st1" d="M314.3,394.3c0.1-0.2,0.2-0.3,0.3-0.5c5.3-9.2,6.1-18.8,6.1-18.8s-7.9,5.4-13.2,14.7c-0.1,0.2-0.2,0.3-0.3,0.5
		l-7.8,0.5c-1.1,0.3-1.8,1.5-1.5,2.6l4,8.2c-0.4,1.1-0.7,2.2-0.9,3.1c-0.1,0.2,0.1,0.6,0.4,0.7l2.6,1.5c0.3,0.2,0.7,0.2,0.8,0
		c0.7-0.6,1.4-1.4,2.2-2.3l9-0.6c1.1-0.3,1.8-1.5,1.5-2.6L314.3,394.3z M306.2,393.7l-4.3,0.2l0,0l2,3.8l-0.9,1.6l-2.9-5.7l0.7-1.2
		l6.4-0.3L306.2,393.7z M311.7,388c0.4-0.6,1.2-0.9,1.8-0.5c0.6,0.4,0.9,1.2,0.5,1.8c-0.4,0.6-1.2,0.9-1.8,0.5
		C311.5,389.4,311.3,388.6,311.7,388z M314.9,402.2l-6.4,0.3l0.9-1.6l4.3-0.2l0,0l-2-3.8l0.9-1.6l2.9,5.7L314.9,402.2z"/>
</g>
<g>
	<path class="st2" d="M327.5,403.6V402l2.1-0.4v-14.6l-2.1-0.4v-1.6h6.6v1.6l-2.1,0.4v14.6l2.1,0.4v1.6H327.5z"/>
	<path class="st2" d="M335,403.6V402l2.1-0.4v-9.8l-2.1-0.4v-1.6h4.3l0.2,2c0.5-0.7,1-1.3,1.7-1.7s1.5-0.6,2.4-0.6
		c1.5,0,2.6,0.4,3.4,1.3c0.8,0.9,1.2,2.2,1.2,4v6.7l2.1,0.4v1.6h-6.6V402l2.1-0.4V395c0-1.2-0.2-2.1-0.7-2.6
		c-0.5-0.5-1.2-0.8-2.2-0.8c-0.7,0-1.4,0.2-1.9,0.5c-0.6,0.3-1,0.8-1.3,1.4v8.1l2.1,0.4v1.6H335z"/>
	<path class="st2" d="M355.4,403.8c-1,0-1.8-0.3-2.4-0.9c-0.6-0.6-0.9-1.6-0.9-2.9v-8.4h-2.2v-1.9h2.2v-3.3h2.5v3.3h3v1.9h-3v8.4
		c0,0.7,0.1,1.1,0.4,1.5c0.3,0.3,0.6,0.5,1.1,0.5c0.3,0,0.6,0,1-0.1c0.4-0.1,0.6-0.1,0.9-0.1l0.3,1.6c-0.4,0.1-0.8,0.2-1.3,0.3
		C356.3,403.8,355.8,403.8,355.4,403.8z"/>
	<path class="st2" d="M364.7,403.9c-1.3,0-2.4-0.3-3.3-0.9c-0.9-0.6-1.7-1.4-2.2-2.4c-0.5-1-0.8-2.2-0.8-3.6v-0.6
		c0-1.3,0.3-2.5,0.8-3.5c0.5-1,1.3-1.8,2.1-2.4c0.9-0.6,1.9-0.9,2.9-0.9c1.2,0,2.3,0.3,3.1,0.8c0.8,0.5,1.5,1.2,1.9,2.1
		c0.4,0.9,0.6,2,0.6,3.2v1.6h-8.9l0,0.1c0,0.9,0.2,1.7,0.5,2.3c0.3,0.7,0.7,1.2,1.3,1.6c0.6,0.4,1.2,0.6,2,0.6
		c0.8,0,1.6-0.1,2.2-0.4s1.2-0.6,1.7-1l1,1.6c-0.5,0.5-1.1,0.9-2,1.2C366.9,403.7,365.9,403.9,364.7,403.9z M361.1,395.4h6.3V395
		c0-0.7-0.1-1.3-0.3-1.8c-0.2-0.5-0.6-0.9-1-1.2c-0.5-0.3-1-0.5-1.7-0.5c-0.6,0-1.1,0.2-1.5,0.5c-0.5,0.3-0.8,0.8-1.1,1.3
		C361.4,393.9,361.2,394.6,361.1,395.4L361.1,395.4z"/>
	<path class="st2" d="M370.8,403.6V402l2.1-0.4v-9.8l-2.1-0.4v-1.6h4.3l0.2,1.8l0,0.2c0.4-0.7,0.9-1.3,1.4-1.7
		c0.6-0.4,1.2-0.6,2-0.6c0.3,0,0.5,0,0.8,0.1c0.3,0,0.5,0.1,0.6,0.1l-0.3,2.3l-1.7-0.1c-0.7,0-1.2,0.1-1.7,0.5
		c-0.4,0.3-0.8,0.8-1,1.4v7.8l2.1,0.4v1.6H370.8z"/>
	<path class="st2" d="M380.8,408.9v-1.6l1.9-0.4v-15.1l-2.1-0.4v-1.6h4.2l0.2,1.7c0.5-0.6,1-1.1,1.7-1.4c0.7-0.3,1.4-0.5,2.3-0.5
		c1.1,0,2.1,0.3,2.9,0.9c0.8,0.6,1.4,1.5,1.8,2.6c0.4,1.1,0.6,2.4,0.6,3.9v0.3c0,1.3-0.2,2.5-0.6,3.5c-0.4,1-1,1.8-1.8,2.3
		c-0.8,0.6-1.8,0.8-2.9,0.8c-0.8,0-1.6-0.1-2.2-0.4c-0.6-0.3-1.2-0.7-1.6-1.3v4.7l2.2,0.4v1.6H380.8z M388.4,401.9
		c1.2,0,2.1-0.4,2.7-1.3c0.6-0.9,0.9-2,0.9-3.4V397c0-1.1-0.1-2-0.4-2.8c-0.3-0.8-0.7-1.4-1.2-1.9c-0.5-0.5-1.2-0.7-2-0.7
		c-0.7,0-1.3,0.2-1.8,0.5c-0.5,0.3-0.9,0.8-1.2,1.3v6.7c0.3,0.6,0.7,1,1.2,1.3C387,401.8,387.6,401.9,388.4,401.9z"/>
	<path class="st2" d="M395.6,403.6V402l2.1-0.4v-15.9l-2.1-0.4v-1.6h4.6v17.9l2.1,0.4v1.6H395.6z"/>
	<path class="st2" d="M407.4,403.9c-1.4,0-2.5-0.3-3.3-1c-0.7-0.7-1.1-1.7-1.1-3c0-0.9,0.2-1.6,0.7-2.3c0.5-0.6,1.2-1.2,2.1-1.5
		c0.9-0.4,2-0.5,3.3-0.5h2.5v-1.3c0-0.8-0.3-1.5-0.8-1.9c-0.5-0.5-1.2-0.7-2.1-0.7c-0.6,0-1.1,0.1-1.5,0.2s-0.8,0.3-1.2,0.6
		l-0.3,1.9h-1.9v-3.2c0.6-0.5,1.3-0.9,2.2-1.1c0.8-0.3,1.7-0.4,2.7-0.4c1.7,0,3,0.4,3.9,1.2c0.9,0.8,1.4,1.9,1.4,3.4v6.6
		c0,0.2,0,0.4,0,0.5c0,0.2,0,0.3,0,0.5l1.3,0.1v1.6h-3.6c-0.1-0.4-0.1-0.7-0.2-1c0-0.3-0.1-0.6-0.1-0.9c-0.5,0.6-1.1,1.1-1.8,1.5
		C409,403.7,408.3,403.9,407.4,403.9z M407.8,401.8c0.8,0,1.6-0.2,2.3-0.6c0.7-0.4,1.2-0.9,1.5-1.4v-2.5H409c-1.2,0-2,0.3-2.6,0.8
		c-0.6,0.6-0.9,1.2-0.9,1.8c0,0.6,0.2,1.1,0.6,1.4C406.5,401.6,407,401.8,407.8,401.8z"/>
	<path class="st2" d="M419.1,409.2c-0.2,0-0.4,0-0.8-0.1c-0.3,0-0.6-0.1-0.7-0.1l0.3-2c0.1,0,0.3,0,0.6,0c0.3,0,0.4,0,0.5,0
		c0.5,0,1-0.2,1.3-0.6c0.3-0.4,0.6-1,0.9-1.7l0.6-1.4l-4.9-11.7l-1.5-0.2v-1.6h5.8v1.6l-1.7,0.3l2.7,6.9l0.6,1.8h0.1l3.2-8.7
		l-1.8-0.3v-1.6h5.7v1.6l-1.4,0.2l-5.4,14c-0.3,0.7-0.6,1.3-0.9,1.8c-0.4,0.5-0.8,0.9-1.3,1.2C420.5,409,419.8,409.2,419.1,409.2z"
		/>
</g>
<g>
	<path class="st3" d="M102.7,350c0-6.4,5.4-11.7,11.9-11.7c3.3,0,6.4,1.4,8.5,3.7l-2.9,2.7c-1.4-1.6-3.4-2.6-5.6-2.6
		c-4.2,0-7.7,3.6-7.7,8c0,4.4,3.5,8,7.7,8c2.2,0,4.2-1,5.6-2.6l2.9,2.7c-2.2,2.3-5.2,3.7-8.5,3.7C108.2,361.7,102.7,356.4,102.7,350
		z"/>
	<path class="st3" d="M124,352.8c0-4.9,4.2-8.9,9.1-8.9s9.1,4.1,9.1,8.9c0,4.9-4.2,8.9-9.1,8.9S124,357.6,124,352.8z M138.3,352.8
		c0-3-2.4-5.5-5.2-5.5c-2.8,0-5.2,2.5-5.2,5.5c0,3,2.4,5.5,5.2,5.5C135.9,358.3,138.3,355.8,138.3,352.8z"/>
	<path class="st3" d="M160,344.3v17.1h-4v-2.3c-1.1,1.6-3,2.7-5.3,2.7c-3.7,0-6.3-2.7-6.3-6.6v-10.9h3.9v10.1c0,2.3,1.5,4,3.6,4
		s3.9-1.4,4.1-3.2v-10.8H160z"/>
	<path class="st3" d="M162.2,352.8c0-4.9,4.2-8.9,9.2-8.9c2.6,0,4.9,1.1,6.5,2.8l-2.7,2.4c-0.9-1-2.3-1.7-3.8-1.7
		c-2.8,0-5.1,2.5-5.1,5.5c0,3,2.3,5.5,5.1,5.5c1.5,0,2.9-0.7,3.9-1.8l2.7,2.3c-1.7,1.7-3.9,2.9-6.6,2.9
		C166.4,361.7,162.2,357.6,162.2,352.8z"/>
	<path class="st3" d="M195.4,350.5v10.9h-3.9v-10.1c0-2.3-1.5-4-3.6-4c-2.3,0-4.2,1.6-4.2,3.7v10.3h-4v-23.1h4v8.4
		c1-1.6,3-2.7,5.3-2.7C192.8,343.9,195.4,346.6,195.4,350.5z"/>
	<path class="st3" d="M210.7,356.5l2.5,2.6c-1.5,1.6-4.5,2.6-6.9,2.6c-4.9,0-8.9-3.7-8.9-9c0-5.1,3.8-8.9,8.7-8.9
		c5.3,0,8.4,4,8.4,10.3h-12.9c0.5,2.3,2.3,4,4.7,4C207.9,358.2,209.8,357.4,210.7,356.5z M201.6,351.1h9c-0.5-2.1-1.9-3.7-4.3-3.7
		C204,347.4,202.2,348.9,201.6,351.1z"/>
	<path class="st3" d="M216,350.5h8.9v3.5H216V350.5z"/>
	<path class="st3" d="M233.6,342.4h-7.3v-3.8H245v3.8h-7.3v18.9h-4.1V342.4z"/>
	<path class="st3" d="M261.8,351.1v10.3h-3.9v-2c-1.3,1.6-3.4,2.4-5.4,2.4c-3.6,0-6.4-2.1-6.4-5.4c0-3.4,3.1-5.7,7-5.7
		c1.6,0,3.2,0.3,4.8,0.9v-0.5c0-2-1.1-3.9-4.2-3.9c-1.6,0-3.2,0.6-4.6,1.3l-1.4-2.8c2.4-1.2,4.7-1.8,6.8-1.8
		C259,343.9,261.8,346.7,261.8,351.1z M257.8,356v-1.9c-1.3-0.4-2.7-0.7-4.2-0.7c-2,0-3.6,1.1-3.6,2.7s1.4,2.6,3.3,2.6
		C255.3,358.8,257.4,357.8,257.8,356z"/>
	<path class="st3" d="M275,343.9v3.4c-3.7,0-6.1,2.2-6.1,5.4v8.6h-4v-17.1h4v3.3C270,345.3,272.2,343.9,275,343.9z"/>
	<path class="st3" d="M293.6,338.3v23.1h-4v-2.6c-1.4,1.9-3.4,3-5.9,3c-4.5,0-7.8-3.7-7.8-8.9c0-5.2,3.3-8.9,7.8-8.9
		c2.5,0,4.6,1.1,5.9,3v-8.6H293.6z M289.6,352.8c0-3.2-2-5.5-4.8-5.5c-2.9,0-4.9,2.3-4.9,5.5c0,3.2,2,5.5,4.9,5.5
		C287.6,358.3,289.6,356,289.6,352.8z"/>
	<path class="st3" d="M305.2,338.7h4.1l7.5,13.8l7.5-13.8h4.1v22.7h-4.1v-15.1l-7.5,13.8l-7.5-13.8v15.1h-4.1V338.7z"/>
	<path class="st3" d="M344.3,356.5l2.5,2.6c-1.5,1.6-4.5,2.6-6.9,2.6c-4.9,0-8.9-3.7-8.9-9c0-5.1,3.8-8.9,8.7-8.9
		c5.3,0,8.3,4,8.3,10.3h-12.9c0.5,2.3,2.3,4,4.7,4C341.4,358.2,343.3,357.4,344.3,356.5z M335.2,351.1h9c-0.5-2.1-1.9-3.7-4.3-3.7
		C337.6,347.4,335.8,348.9,335.2,351.1z"/>
	<path class="st3" d="M360.4,343.9v3.4c-3.7,0-6.1,2.2-6.1,5.4v8.6h-4v-17.1h4v3.3C355.4,345.3,357.6,343.9,360.4,343.9z"/>
	<path class="st3" d="M361.1,352.8c0-4.9,4.2-8.9,9.2-8.9c2.6,0,4.9,1.1,6.5,2.8L374,349c-0.9-1-2.3-1.7-3.8-1.7
		c-2.8,0-5.1,2.5-5.1,5.5c0,3,2.3,5.5,5.1,5.5c1.5,0,2.9-0.7,3.9-1.8l2.7,2.3c-1.7,1.7-3.9,2.9-6.6,2.9
		C365.3,361.7,361.1,357.6,361.1,352.8z"/>
	<path class="st3" d="M394.3,350.5v10.9h-3.9v-10.1c0-2.3-1.5-4-3.6-4c-2.3,0-4.2,1.6-4.2,3.7v10.3h-4v-23.1h4v8.4
		c1-1.6,3-2.7,5.3-2.7C391.7,343.9,394.3,346.6,394.3,350.5z"/>
	<path class="st3" d="M412,351.1v10.3h-3.9v-2c-1.3,1.6-3.4,2.4-5.4,2.4c-3.6,0-6.4-2.1-6.4-5.4c0-3.4,3.1-5.7,7-5.7
		c1.6,0,3.2,0.3,4.8,0.9v-0.5c0-2-1.1-3.9-4.2-3.9c-1.6,0-3.2,0.6-4.6,1.3l-1.4-2.8c2.4-1.2,4.7-1.8,6.8-1.8
		C409.2,343.9,412,346.7,412,351.1z M408.1,356v-1.9c-1.3-0.4-2.7-0.7-4.2-0.7c-2,0-3.6,1.1-3.6,2.7s1.4,2.6,3.3,2.6
		C405.6,358.8,407.7,357.8,408.1,356z"/>
	<path class="st3" d="M430.7,350.5v10.9h-3.9v-10.1c0-2.3-1.5-4-3.6-4s-3.9,1.4-4.1,3.2v10.8h-4v-17.1h4v2.3c1.1-1.6,3-2.7,5.3-2.7
		C428.1,343.9,430.7,346.6,430.7,350.5z"/>
	<path class="st3" d="M443.4,360.4c-1,0.8-2.3,1.4-3.6,1.4c-2.8,0-4.8-2-4.8-4.9v-9.2h-2.5v-3.3h2.5v-4.7h3.9v4.7h3.9v3.3h-3.9v8.7
		c0,1.2,0.7,2,1.7,2c0.7,0,1.3-0.3,1.7-0.6L443.4,360.4z"/>
	<path class="st3" d="M452.4,350c0-6.4,5.4-11.7,11.9-11.7c3.3,0,6.4,1.4,8.5,3.7l-2.9,2.7c-1.4-1.6-3.4-2.6-5.6-2.6
		c-4.2,0-7.7,3.6-7.7,8c0,4.4,3.5,8,7.7,8c2.2,0,4.2-1,5.6-2.6l2.9,2.7c-2.2,2.3-5.2,3.7-8.5,3.7C457.8,361.7,452.4,356.4,452.4,350
		z"/>
	<path class="st3" d="M486.9,356.5l2.5,2.6c-1.5,1.6-4.5,2.6-6.9,2.6c-4.9,0-8.9-3.7-8.9-9c0-5.1,3.8-8.9,8.7-8.9
		c5.3,0,8.3,4,8.3,10.3h-12.9c0.5,2.3,2.3,4,4.7,4C484.1,358.2,486,357.4,486.9,356.5z M477.8,351.1h9c-0.5-2.1-1.9-3.7-4.3-3.7
		C480.2,347.4,478.4,348.9,477.8,351.1z"/>
	<path class="st3" d="M508.4,350.5v10.9h-3.9v-10.1c0-2.3-1.5-4-3.6-4s-3.9,1.4-4.1,3.2v10.8h-4v-17.1h4v2.3c1.1-1.6,3-2.7,5.3-2.7
		C505.8,343.9,508.4,346.6,508.4,350.5z"/>
	<path class="st3" d="M521.1,360.4c-1,0.8-2.3,1.4-3.6,1.4c-2.8,0-4.8-2-4.8-4.9v-9.2h-2.5v-3.3h2.5v-4.7h3.9v4.7h3.9v3.3h-3.9v8.7
		c0,1.2,0.7,2,1.7,2c0.7,0,1.3-0.3,1.7-0.6L521.1,360.4z"/>
	<path class="st3" d="M535.3,356.5l2.5,2.6c-1.5,1.6-4.5,2.6-6.9,2.6c-4.9,0-8.9-3.7-8.9-9c0-5.1,3.8-8.9,8.7-8.9
		c5.3,0,8.3,4,8.3,10.3h-12.9c0.5,2.3,2.3,4,4.7,4C532.4,358.2,534.3,357.4,535.3,356.5z M526.2,351.1h9c-0.5-2.1-1.9-3.7-4.3-3.7
		C528.6,347.4,526.8,348.9,526.2,351.1z"/>
	<path class="st3" d="M551.4,343.9v3.4c-3.7,0-6.1,2.2-6.1,5.4v8.6h-4v-17.1h4v3.3C546.4,345.3,548.6,343.9,551.4,343.9z"/>
</g>
<g>
	<path class="st2" d="M224,391.5h3.3c1.6,0,2.9,1,2.9,2.5c0,1.5-1.2,2.5-2.9,2.5h-1.9v2.6H224V391.5z M227.2,395.3
		c0.9,0,1.6-0.5,1.6-1.3c0-0.8-0.7-1.3-1.6-1.3h-1.8v2.5H227.2z"/>
	<path class="st2" d="M231,396.2c0-1.6,1.4-3,3.1-3c1.7,0,3.1,1.4,3.1,3c0,1.6-1.4,3-3.1,3C232.4,399.2,231,397.9,231,396.2z
		 M235.8,396.2c0-1-0.8-1.9-1.8-1.9c-1,0-1.8,0.8-1.8,1.9c0,1,0.8,1.9,1.8,1.9C235,398.1,235.8,397.2,235.8,396.2z"/>
	<path class="st2" d="M237.6,393.3h1.4l1.2,3.9l1.3-3.9h1.1l1.3,3.9l1.2-3.9h1.4l-1.9,5.8h-1.2l-1.2-3.9l-1.2,3.9h-1.2L237.6,393.3z
		"/>
	<path class="st2" d="M251.3,397.5l0.9,0.9c-0.5,0.5-1.5,0.9-2.3,0.9c-1.7,0-3-1.3-3-3c0-1.7,1.3-3,2.9-3c1.8,0,2.8,1.3,2.8,3.5
		h-4.4c0.2,0.8,0.8,1.4,1.6,1.4C250.4,398,251,397.8,251.3,397.5z M248.3,395.7h3c-0.2-0.7-0.6-1.2-1.5-1.2
		C249.1,394.4,248.5,394.9,248.3,395.7z"/>
	<path class="st2" d="M257.2,393.2v1.2c-1.2,0-2.1,0.7-2.1,1.8v2.9h-1.4v-5.8h1.4v1.1C255.5,393.7,256.3,393.2,257.2,393.2z"/>
	<path class="st2" d="M262.4,397.5l0.9,0.9c-0.5,0.5-1.5,0.9-2.3,0.9c-1.7,0-3-1.3-3-3c0-1.7,1.3-3,2.9-3c1.8,0,2.8,1.3,2.8,3.5
		h-4.4c0.2,0.8,0.8,1.4,1.6,1.4C261.5,398,262.1,397.8,262.4,397.5z M259.3,395.7h3c-0.2-0.7-0.6-1.2-1.5-1.2
		C260.2,394.4,259.5,394.9,259.3,395.7z"/>
	<path class="st2" d="M270.6,391.3v7.8h-1.4v-0.9c-0.5,0.6-1.1,1-2,1c-1.5,0-2.6-1.2-2.6-3c0-1.8,1.1-3,2.6-3c0.8,0,1.5,0.4,2,1
		v-2.9H270.6z M269.3,396.2c0-1.1-0.7-1.9-1.6-1.9c-1,0-1.7,0.8-1.7,1.9c0,1.1,0.7,1.9,1.7,1.9C268.6,398.1,269.3,397.3,269.3,396.2
		z"/>
	<path class="st2" d="M281.3,396.2c0,1.8-1.1,3-2.6,3c-0.9,0-1.6-0.4-2-1v0.9h-1.4v-7.8h1.4v2.9c0.5-0.7,1.1-1,2-1
		C280.2,393.2,281.3,394.5,281.3,396.2z M280,396.2c0-1.1-0.7-1.9-1.7-1.9c-1,0-1.6,0.8-1.6,1.9c0,1.1,0.7,1.9,1.6,1.9
		C279.3,398.1,280,397.3,280,396.2z"/>
	<path class="st2" d="M282.5,400.8l0.3-1c0.2,0.1,0.5,0.2,0.7,0.2c0.3,0,0.6-0.1,0.7-0.4l0.2-0.5l-2.4-5.8h1.4l1.7,4.3l1.6-4.3h1.4
		l-2.4,6.2c-0.4,1.1-1.1,1.6-2,1.6C283.3,401.1,282.8,401,282.5,400.8z"/>
</g>
</svg>
